solid OpenSCAD_Model
  facet normal -0.000000 0.000000 -1.000000
    outer loop
      vertex -13.500000 0.000000 0.000000
      vertex -13.204993 2.806808 0.000000
      vertex -13.204993 -2.806808 0.000000
    endloop
  endfacet
  facet normal 0.000000 -0.000000 -1.000000
    outer loop
      vertex -13.204993 -2.806808 0.000000
      vertex -13.204993 2.806808 0.000000
      vertex -12.332864 5.490945 0.000000
    endloop
  endfacet
  facet normal 0.000000 0.000000 -1.000000
    outer loop
      vertex -13.204993 -2.806808 0.000000
      vertex -12.332864 5.490945 0.000000
      vertex -10.921729 7.935101 0.000000
    endloop
  endfacet
  facet normal 0.000000 0.000000 -1.000000
    outer loop
      vertex -13.204993 -2.806808 0.000000
      vertex -10.921729 7.935101 0.000000
      vertex -9.033263 10.032455 0.000000
    endloop
  endfacet
  facet normal 0.000000 0.000000 -1.000000
    outer loop
      vertex -13.204993 -2.806808 0.000000
      vertex -9.033263 10.032455 0.000000
      vertex -6.750000 11.691343 0.000000
    endloop
  endfacet
  facet normal 0.000000 0.000000 -1.000000
    outer loop
      vertex -13.204993 -2.806808 0.000000
      vertex -6.750000 11.691343 0.000000
      vertex -4.171729 12.839263 0.000000
    endloop
  endfacet
  facet normal 0.000000 0.000000 -1.000000
    outer loop
      vertex -13.204993 -2.806808 0.000000
      vertex -4.171729 12.839263 0.000000
      vertex -1.411134 13.426046 0.000000
    endloop
  endfacet
  facet normal 0.000000 0.000000 -1.000000
    outer loop
      vertex -13.204993 -2.806808 0.000000
      vertex -1.411134 13.426046 0.000000
      vertex 1.411134 13.426046 0.000000
    endloop
  endfacet
  facet normal 0.000000 0.000000 -1.000000
    outer loop
      vertex -13.204993 -2.806808 0.000000
      vertex 1.411134 13.426046 0.000000
      vertex 4.171729 12.839263 0.000000
    endloop
  endfacet
  facet normal 0.000000 0.000000 -1.000000
    outer loop
      vertex -13.204993 -2.806808 0.000000
      vertex 4.171729 12.839263 0.000000
      vertex 6.750000 11.691343 0.000000
    endloop
  endfacet
  facet normal 0.000000 0.000000 -1.000000
    outer loop
      vertex -13.204993 -2.806808 0.000000
      vertex 6.750000 11.691343 0.000000
      vertex 9.033263 10.032455 0.000000
    endloop
  endfacet
  facet normal 0.000000 0.000000 -1.000000
    outer loop
      vertex 1.236068 3.804226 0.000000
      vertex 9.033263 10.032455 0.000000
      vertex 10.921729 7.935101 0.000000
    endloop
  endfacet
  facet normal 0.000000 0.000000 -1.000000
    outer loop
      vertex 2.676522 2.972579 0.000000
      vertex 10.921729 7.935101 0.000000
      vertex 12.332864 5.490945 0.000000
    endloop
  endfacet
  facet normal 0.000000 0.000000 -1.000000
    outer loop
      vertex 3.654182 1.626947 0.000000
      vertex 12.332864 5.490945 0.000000
      vertex 13.204993 2.806808 0.000000
    endloop
  endfacet
  facet normal -0.000000 0.000000 -1.000000
    outer loop
      vertex 4.000000 0.000000 0.000000
      vertex 13.204993 2.806808 0.000000
      vertex 13.500000 0.000000 0.000000
    endloop
  endfacet
  facet normal -0.000000 0.000000 -1.000000
    outer loop
      vertex 3.236068 -2.351141 0.000000
      vertex 13.500000 0.000000 0.000000
      vertex 13.204993 -2.806808 0.000000
    endloop
  endfacet
  facet normal -0.000000 0.000000 -1.000000
    outer loop
      vertex 2.000000 -3.464102 0.000000
      vertex 13.204993 -2.806808 0.000000
      vertex 12.332864 -5.490945 0.000000
    endloop
  endfacet
  facet normal 0.000000 0.000000 -1.000000
    outer loop
      vertex -13.204993 -2.806808 0.000000
      vertex 12.332864 -5.490945 0.000000
      vertex 10.921729 -7.935101 0.000000
    endloop
  endfacet
  facet normal 0.000000 0.000000 -1.000000
    outer loop
      vertex -13.204993 -2.806808 0.000000
      vertex 10.921729 -7.935101 0.000000
      vertex 9.033263 -10.032455 0.000000
    endloop
  endfacet
  facet normal 0.000000 0.000000 -1.000000
    outer loop
      vertex -13.204993 -2.806808 0.000000
      vertex 9.033263 -10.032455 0.000000
      vertex 6.750000 -11.691343 0.000000
    endloop
  endfacet
  facet normal 0.000000 0.000000 -1.000000
    outer loop
      vertex -13.204993 -2.806808 0.000000
      vertex 6.750000 -11.691343 0.000000
      vertex 4.171729 -12.839263 0.000000
    endloop
  endfacet
  facet normal 0.000000 0.000000 -1.000000
    outer loop
      vertex -13.204993 -2.806808 0.000000
      vertex 4.171729 -12.839263 0.000000
      vertex 1.411134 -13.426046 0.000000
    endloop
  endfacet
  facet normal 0.000000 0.000000 -1.000000
    outer loop
      vertex -13.204993 -2.806808 0.000000
      vertex 1.411134 -13.426046 0.000000
      vertex -1.411134 -13.426046 0.000000
    endloop
  endfacet
  facet normal 0.000000 0.000000 -1.000000
    outer loop
      vertex -13.204993 -2.806808 0.000000
      vertex -1.411134 -13.426046 0.000000
      vertex -4.171729 -12.839263 0.000000
    endloop
  endfacet
  facet normal 0.000000 0.000000 -1.000000
    outer loop
      vertex -13.204993 -2.806808 0.000000
      vertex -4.171729 -12.839263 0.000000
      vertex -6.750000 -11.691343 0.000000
    endloop
  endfacet
  facet normal 0.000000 0.000000 -1.000000
    outer loop
      vertex -13.204993 -2.806808 0.000000
      vertex -6.750000 -11.691343 0.000000
      vertex -9.033263 -10.032455 0.000000
    endloop
  endfacet
  facet normal 0.000000 0.000000 -1.000000
    outer loop
      vertex -13.204993 -2.806808 0.000000
      vertex -9.033263 -10.032455 0.000000
      vertex -10.921729 -7.935101 0.000000
    endloop
  endfacet
  facet normal 0.000000 0.000000 -1.000000
    outer loop
      vertex -13.204993 -2.806808 0.000000
      vertex -10.921729 -7.935101 0.000000
      vertex -12.332864 -5.490945 0.000000
    endloop
  endfacet
  facet normal 0.000000 0.000000 -1.000000
    outer loop
      vertex -3.912590 -0.831647 0.000000
      vertex -13.204993 -2.806808 0.000000
      vertex -4.000000 0.000000 0.000000
    endloop
  endfacet
  facet normal 0.000000 0.000000 -1.000000
    outer loop
      vertex -3.236068 -2.351141 0.000000
      vertex -13.204993 -2.806808 0.000000
      vertex -3.654182 -1.626947 0.000000
    endloop
  endfacet
  facet normal 0.000000 0.000000 -1.000000
    outer loop
      vertex -13.204993 -2.806808 0.000000
      vertex -3.912590 -0.831647 0.000000
      vertex -3.654182 -1.626947 0.000000
    endloop
  endfacet
  facet normal 0.000000 0.000000 -1.000000
    outer loop
      vertex -2.676522 -2.972579 0.000000
      vertex -13.204993 -2.806808 0.000000
      vertex -3.236068 -2.351141 0.000000
    endloop
  endfacet
  facet normal 0.000000 0.000000 -1.000000
    outer loop
      vertex 0.418114 -3.978088 0.000000
      vertex 12.332864 -5.490945 0.000000
      vertex -0.418114 -3.978088 0.000000
    endloop
  endfacet
  facet normal 0.000000 0.000000 -1.000000
    outer loop
      vertex -13.204993 -2.806808 0.000000
      vertex -2.676522 -2.972579 0.000000
      vertex -2.000000 -3.464102 0.000000
    endloop
  endfacet
  facet normal 0.000000 0.000000 -1.000000
    outer loop
      vertex -13.204993 -2.806808 0.000000
      vertex -2.000000 -3.464102 0.000000
      vertex -1.236068 -3.804226 0.000000
    endloop
  endfacet
  facet normal 0.000000 0.000000 -1.000000
    outer loop
      vertex -13.204993 -2.806808 0.000000
      vertex -1.236068 -3.804226 0.000000
      vertex -0.418114 -3.978088 0.000000
    endloop
  endfacet
  facet normal 0.000000 0.000000 -1.000000
    outer loop
      vertex -13.204993 -2.806808 0.000000
      vertex -0.418114 -3.978088 0.000000
      vertex 12.332864 -5.490945 0.000000
    endloop
  endfacet
  facet normal 0.000000 0.000000 -1.000000
    outer loop
      vertex 1.236068 -3.804226 0.000000
      vertex 12.332864 -5.490945 0.000000
      vertex 0.418114 -3.978088 0.000000
    endloop
  endfacet
  facet normal 0.000000 0.000000 -1.000000
    outer loop
      vertex 2.000000 -3.464102 0.000000
      vertex 12.332864 -5.490945 0.000000
      vertex 1.236068 -3.804226 0.000000
    endloop
  endfacet
  facet normal -0.000000 0.000000 -1.000000
    outer loop
      vertex 2.676522 -2.972579 0.000000
      vertex 13.204993 -2.806808 0.000000
      vertex 2.000000 -3.464102 0.000000
    endloop
  endfacet
  facet normal 0.000000 0.000000 -1.000000
    outer loop
      vertex 3.236068 -2.351141 0.000000
      vertex 13.204993 -2.806808 0.000000
      vertex 2.676522 -2.972579 0.000000
    endloop
  endfacet
  facet normal -0.000000 0.000000 -1.000000
    outer loop
      vertex 3.654182 -1.626947 0.000000
      vertex 13.500000 0.000000 0.000000
      vertex 3.236068 -2.351141 0.000000
    endloop
  endfacet
  facet normal -0.000000 0.000000 -1.000000
    outer loop
      vertex 3.912590 -0.831647 0.000000
      vertex 13.500000 0.000000 0.000000
      vertex 3.654182 -1.626947 0.000000
    endloop
  endfacet
  facet normal 0.000000 0.000000 -1.000000
    outer loop
      vertex 4.000000 0.000000 0.000000
      vertex 13.500000 0.000000 0.000000
      vertex 3.912590 -0.831647 0.000000
    endloop
  endfacet
  facet normal -0.000000 0.000000 -1.000000
    outer loop
      vertex 3.912590 0.831647 0.000000
      vertex 13.204993 2.806808 0.000000
      vertex 4.000000 0.000000 0.000000
    endloop
  endfacet
  facet normal -0.000000 0.000000 -1.000000
    outer loop
      vertex 3.236068 2.351141 0.000000
      vertex 12.332864 5.490945 0.000000
      vertex 3.654182 1.626947 0.000000
    endloop
  endfacet
  facet normal -0.000000 0.000000 -1.000000
    outer loop
      vertex 2.676522 2.972579 0.000000
      vertex 12.332864 5.490945 0.000000
      vertex 3.236068 2.351141 0.000000
    endloop
  endfacet
  facet normal -0.000000 0.000000 -1.000000
    outer loop
      vertex 2.000000 3.464102 0.000000
      vertex 10.921729 7.935101 0.000000
      vertex 2.676522 2.972579 0.000000
    endloop
  endfacet
  facet normal -0.000000 0.000000 -1.000000
    outer loop
      vertex 3.654182 1.626947 0.000000
      vertex 13.204993 2.806808 0.000000
      vertex 3.912590 0.831647 0.000000
    endloop
  endfacet
  facet normal -0.000000 0.000000 -1.000000
    outer loop
      vertex 0.418114 3.978088 0.000000
      vertex 9.033263 10.032455 0.000000
      vertex 1.236068 3.804226 0.000000
    endloop
  endfacet
  facet normal 0.000000 -0.000000 -1.000000
    outer loop
      vertex -2.676522 2.972579 0.000000
      vertex -13.204993 -2.806808 0.000000
      vertex -2.000000 3.464102 0.000000
    endloop
  endfacet
  facet normal -0.000000 0.000000 -1.000000
    outer loop
      vertex -0.418114 3.978088 0.000000
      vertex 9.033263 10.032455 0.000000
      vertex 0.418114 3.978088 0.000000
    endloop
  endfacet
  facet normal 0.000000 0.000000 -1.000000
    outer loop
      vertex -1.236068 3.804226 0.000000
      vertex 9.033263 10.032455 0.000000
      vertex -0.418114 3.978088 0.000000
    endloop
  endfacet
  facet normal 0.000000 0.000000 -1.000000
    outer loop
      vertex -2.000000 3.464102 0.000000
      vertex 9.033263 10.032455 0.000000
      vertex -1.236068 3.804226 0.000000
    endloop
  endfacet
  facet normal 0.000000 0.000000 -1.000000
    outer loop
      vertex -13.204993 -2.806808 0.000000
      vertex 9.033263 10.032455 0.000000
      vertex -2.000000 3.464102 0.000000
    endloop
  endfacet
  facet normal 0.000000 -0.000000 -1.000000
    outer loop
      vertex -3.236068 2.351141 0.000000
      vertex -13.204993 -2.806808 0.000000
      vertex -2.676522 2.972579 0.000000
    endloop
  endfacet
  facet normal 0.000000 -0.000000 -1.000000
    outer loop
      vertex -3.654182 1.626947 0.000000
      vertex -13.204993 -2.806808 0.000000
      vertex -3.236068 2.351141 0.000000
    endloop
  endfacet
  facet normal 0.000000 -0.000000 -1.000000
    outer loop
      vertex -3.912590 0.831647 0.000000
      vertex -13.204993 -2.806808 0.000000
      vertex -3.654182 1.626947 0.000000
    endloop
  endfacet
  facet normal 0.000000 -0.000000 -1.000000
    outer loop
      vertex -4.000000 0.000000 0.000000
      vertex -13.204993 -2.806808 0.000000
      vertex -3.912590 0.831647 0.000000
    endloop
  endfacet
  facet normal -0.000000 0.000000 -1.000000
    outer loop
      vertex 1.236068 3.804226 0.000000
      vertex 10.921729 7.935101 0.000000
      vertex 2.000000 3.464102 0.000000
    endloop
  endfacet
  facet normal -0.994522 0.104528 0.000000
    outer loop
      vertex -13.500000 0.000000 0.000000
      vertex -13.500000 0.000000 0.640000
      vertex -13.204993 2.806808 0.000000
    endloop
  endfacet
  facet normal -0.994522 0.104528 0.000000
    outer loop
      vertex -13.204993 2.806808 0.000000
      vertex -13.500000 0.000000 0.640000
      vertex -13.204993 2.806808 0.640000
    endloop
  endfacet
  facet normal -0.994522 -0.104528 -0.000000
    outer loop
      vertex -13.500000 0.000000 0.000000
      vertex -13.204993 -2.806808 0.000000
      vertex -13.500000 0.000000 0.640000
    endloop
  endfacet
  facet normal -0.994522 -0.104528 0.000000
    outer loop
      vertex -13.500000 0.000000 0.640000
      vertex -13.204993 -2.806808 0.000000
      vertex -13.204993 -2.806808 0.640000
    endloop
  endfacet
  facet normal -0.951057 -0.309017 -0.000000
    outer loop
      vertex -13.204993 -2.806808 0.000000
      vertex -12.332864 -5.490945 0.000000
      vertex -13.204993 -2.806808 0.640000
    endloop
  endfacet
  facet normal -0.951057 -0.309017 0.000000
    outer loop
      vertex -13.204993 -2.806808 0.640000
      vertex -12.332864 -5.490945 0.000000
      vertex -12.332864 -5.490945 0.640000
    endloop
  endfacet
  facet normal -0.866025 -0.500000 -0.000000
    outer loop
      vertex -12.332864 -5.490945 0.000000
      vertex -10.921729 -7.935101 0.000000
      vertex -12.332864 -5.490945 0.640000
    endloop
  endfacet
  facet normal -0.866025 -0.500000 0.000000
    outer loop
      vertex -12.332864 -5.490945 0.640000
      vertex -10.921729 -7.935101 0.000000
      vertex -10.921729 -7.935101 0.640000
    endloop
  endfacet
  facet normal -0.743145 -0.669131 -0.000000
    outer loop
      vertex -10.921729 -7.935101 0.000000
      vertex -9.033263 -10.032455 0.000000
      vertex -10.921729 -7.935101 0.640000
    endloop
  endfacet
  facet normal -0.743145 -0.669131 0.000000
    outer loop
      vertex -10.921729 -7.935101 0.640000
      vertex -9.033263 -10.032455 0.000000
      vertex -9.033263 -10.032455 0.640000
    endloop
  endfacet
  facet normal -0.587785 -0.809017 0.000000
    outer loop
      vertex -9.033263 -10.032455 0.640000
      vertex -9.033263 -10.032455 0.000000
      vertex -6.750000 -11.691343 0.000000
    endloop
  endfacet
  facet normal -0.587785 -0.809017 0.000000
    outer loop
      vertex -6.750000 -11.691343 0.640000
      vertex -9.033263 -10.032455 0.640000
      vertex -6.750000 -11.691343 0.000000
    endloop
  endfacet
  facet normal -0.406737 -0.913545 0.000000
    outer loop
      vertex -6.750000 -11.691343 0.640000
      vertex -6.750000 -11.691343 0.000000
      vertex -4.171729 -12.839263 0.000000
    endloop
  endfacet
  facet normal -0.406737 -0.913545 0.000000
    outer loop
      vertex -4.171729 -12.839263 0.640000
      vertex -6.750000 -11.691343 0.640000
      vertex -4.171729 -12.839263 0.000000
    endloop
  endfacet
  facet normal -0.207912 -0.978148 0.000000
    outer loop
      vertex -4.171729 -12.839263 0.640000
      vertex -4.171729 -12.839263 0.000000
      vertex -1.411134 -13.426046 0.000000
    endloop
  endfacet
  facet normal -0.207912 -0.978148 0.000000
    outer loop
      vertex -1.411134 -13.426046 0.640000
      vertex -4.171729 -12.839263 0.640000
      vertex -1.411134 -13.426046 0.000000
    endloop
  endfacet
  facet normal 0.000000 -1.000000 0.000000
    outer loop
      vertex -1.411134 -13.426046 0.640000
      vertex -1.411134 -13.426046 0.000000
      vertex 1.411134 -13.426046 0.000000
    endloop
  endfacet
  facet normal 0.000000 -1.000000 0.000000
    outer loop
      vertex 1.411134 -13.426046 0.640000
      vertex -1.411134 -13.426046 0.640000
      vertex 1.411134 -13.426046 0.000000
    endloop
  endfacet
  facet normal 0.207912 -0.978148 0.000000
    outer loop
      vertex 1.411134 -13.426046 0.640000
      vertex 1.411134 -13.426046 0.000000
      vertex 4.171729 -12.839263 0.000000
    endloop
  endfacet
  facet normal 0.207912 -0.978148 0.000000
    outer loop
      vertex 4.171729 -12.839263 0.640000
      vertex 1.411134 -13.426046 0.640000
      vertex 4.171729 -12.839263 0.000000
    endloop
  endfacet
  facet normal 0.406737 -0.913545 0.000000
    outer loop
      vertex 4.171729 -12.839263 0.640000
      vertex 4.171729 -12.839263 0.000000
      vertex 6.750000 -11.691343 0.000000
    endloop
  endfacet
  facet normal 0.406737 -0.913545 0.000000
    outer loop
      vertex 6.750000 -11.691343 0.640000
      vertex 4.171729 -12.839263 0.640000
      vertex 6.750000 -11.691343 0.000000
    endloop
  endfacet
  facet normal 0.587785 -0.809017 0.000000
    outer loop
      vertex 6.750000 -11.691343 0.640000
      vertex 6.750000 -11.691343 0.000000
      vertex 9.033263 -10.032455 0.000000
    endloop
  endfacet
  facet normal 0.587785 -0.809017 0.000000
    outer loop
      vertex 9.033263 -10.032455 0.640000
      vertex 6.750000 -11.691343 0.640000
      vertex 9.033263 -10.032455 0.000000
    endloop
  endfacet
  facet normal 0.743145 -0.669131 0.000000
    outer loop
      vertex 9.033263 -10.032455 0.640000
      vertex 9.033263 -10.032455 0.000000
      vertex 10.921729 -7.935101 0.000000
    endloop
  endfacet
  facet normal 0.743145 -0.669131 0.000000
    outer loop
      vertex 10.921729 -7.935101 0.640000
      vertex 9.033263 -10.032455 0.640000
      vertex 10.921729 -7.935101 0.000000
    endloop
  endfacet
  facet normal 0.866025 -0.500000 0.000000
    outer loop
      vertex 10.921729 -7.935101 0.640000
      vertex 10.921729 -7.935101 0.000000
      vertex 12.332864 -5.490945 0.000000
    endloop
  endfacet
  facet normal 0.866025 -0.500000 0.000000
    outer loop
      vertex 12.332864 -5.490945 0.640000
      vertex 10.921729 -7.935101 0.640000
      vertex 12.332864 -5.490945 0.000000
    endloop
  endfacet
  facet normal 0.951057 -0.309017 0.000000
    outer loop
      vertex 12.332864 -5.490945 0.640000
      vertex 12.332864 -5.490945 0.000000
      vertex 13.204993 -2.806808 0.000000
    endloop
  endfacet
  facet normal 0.951057 -0.309017 0.000000
    outer loop
      vertex 13.204993 -2.806808 0.640000
      vertex 12.332864 -5.490945 0.640000
      vertex 13.204993 -2.806808 0.000000
    endloop
  endfacet
  facet normal 0.994522 -0.104528 0.000000
    outer loop
      vertex 13.204993 -2.806808 0.640000
      vertex 13.204993 -2.806808 0.000000
      vertex 13.500000 0.000000 0.000000
    endloop
  endfacet
  facet normal 0.994522 -0.104528 0.000000
    outer loop
      vertex 13.500000 0.000000 0.640000
      vertex 13.204993 -2.806808 0.640000
      vertex 13.500000 0.000000 0.000000
    endloop
  endfacet
  facet normal 0.994522 0.104528 0.000000
    outer loop
      vertex 13.500000 0.000000 0.000000
      vertex 13.204993 2.806808 0.000000
      vertex 13.204993 2.806808 0.640000
    endloop
  endfacet
  facet normal 0.994522 0.104528 -0.000000
    outer loop
      vertex 13.500000 0.000000 0.640000
      vertex 13.500000 0.000000 0.000000
      vertex 13.204993 2.806808 0.640000
    endloop
  endfacet
  facet normal 0.951057 0.309017 0.000000
    outer loop
      vertex 13.204993 2.806808 0.000000
      vertex 12.332864 5.490945 0.000000
      vertex 12.332864 5.490945 0.640000
    endloop
  endfacet
  facet normal 0.951057 0.309017 -0.000000
    outer loop
      vertex 13.204993 2.806808 0.640000
      vertex 13.204993 2.806808 0.000000
      vertex 12.332864 5.490945 0.640000
    endloop
  endfacet
  facet normal 0.866025 0.500000 0.000000
    outer loop
      vertex 12.332864 5.490945 0.000000
      vertex 10.921729 7.935101 0.000000
      vertex 10.921729 7.935101 0.640000
    endloop
  endfacet
  facet normal 0.866025 0.500000 -0.000000
    outer loop
      vertex 12.332864 5.490945 0.640000
      vertex 12.332864 5.490945 0.000000
      vertex 10.921729 7.935101 0.640000
    endloop
  endfacet
  facet normal 0.743145 0.669131 0.000000
    outer loop
      vertex 10.921729 7.935101 0.000000
      vertex 9.033263 10.032455 0.000000
      vertex 9.033263 10.032455 0.640000
    endloop
  endfacet
  facet normal 0.743145 0.669131 -0.000000
    outer loop
      vertex 10.921729 7.935101 0.640000
      vertex 10.921729 7.935101 0.000000
      vertex 9.033263 10.032455 0.640000
    endloop
  endfacet
  facet normal 0.587785 0.809017 0.000000
    outer loop
      vertex 6.750000 11.691343 0.000000
      vertex 6.750000 11.691343 0.640000
      vertex 9.033263 10.032455 0.000000
    endloop
  endfacet
  facet normal 0.587785 0.809017 0.000000
    outer loop
      vertex 9.033263 10.032455 0.000000
      vertex 6.750000 11.691343 0.640000
      vertex 9.033263 10.032455 0.640000
    endloop
  endfacet
  facet normal 0.406737 0.913545 0.000000
    outer loop
      vertex 4.171729 12.839263 0.000000
      vertex 4.171729 12.839263 0.640000
      vertex 6.750000 11.691343 0.000000
    endloop
  endfacet
  facet normal 0.406737 0.913545 0.000000
    outer loop
      vertex 6.750000 11.691343 0.000000
      vertex 4.171729 12.839263 0.640000
      vertex 6.750000 11.691343 0.640000
    endloop
  endfacet
  facet normal 0.207912 0.978148 0.000000
    outer loop
      vertex 1.411134 13.426046 0.000000
      vertex 1.411134 13.426046 0.640000
      vertex 4.171729 12.839263 0.000000
    endloop
  endfacet
  facet normal 0.207912 0.978148 0.000000
    outer loop
      vertex 4.171729 12.839263 0.000000
      vertex 1.411134 13.426046 0.640000
      vertex 4.171729 12.839263 0.640000
    endloop
  endfacet
  facet normal 0.000000 1.000000 0.000000
    outer loop
      vertex -1.411134 13.426046 0.000000
      vertex -1.411134 13.426046 0.640000
      vertex 1.411134 13.426046 0.000000
    endloop
  endfacet
  facet normal 0.000000 1.000000 0.000000
    outer loop
      vertex 1.411134 13.426046 0.000000
      vertex -1.411134 13.426046 0.640000
      vertex 1.411134 13.426046 0.640000
    endloop
  endfacet
  facet normal -0.207912 0.978148 0.000000
    outer loop
      vertex -4.171729 12.839263 0.000000
      vertex -4.171729 12.839263 0.640000
      vertex -1.411134 13.426046 0.000000
    endloop
  endfacet
  facet normal -0.207912 0.978148 0.000000
    outer loop
      vertex -1.411134 13.426046 0.000000
      vertex -4.171729 12.839263 0.640000
      vertex -1.411134 13.426046 0.640000
    endloop
  endfacet
  facet normal -0.406737 0.913545 0.000000
    outer loop
      vertex -6.750000 11.691343 0.000000
      vertex -6.750000 11.691343 0.640000
      vertex -4.171729 12.839263 0.000000
    endloop
  endfacet
  facet normal -0.406737 0.913545 0.000000
    outer loop
      vertex -4.171729 12.839263 0.000000
      vertex -6.750000 11.691343 0.640000
      vertex -4.171729 12.839263 0.640000
    endloop
  endfacet
  facet normal -0.587785 0.809017 0.000000
    outer loop
      vertex -9.033263 10.032455 0.000000
      vertex -9.033263 10.032455 0.640000
      vertex -6.750000 11.691343 0.000000
    endloop
  endfacet
  facet normal -0.587785 0.809017 0.000000
    outer loop
      vertex -6.750000 11.691343 0.000000
      vertex -9.033263 10.032455 0.640000
      vertex -6.750000 11.691343 0.640000
    endloop
  endfacet
  facet normal -0.743145 0.669131 0.000000
    outer loop
      vertex -10.921729 7.935101 0.000000
      vertex -10.921729 7.935101 0.640000
      vertex -9.033263 10.032455 0.000000
    endloop
  endfacet
  facet normal -0.743145 0.669131 0.000000
    outer loop
      vertex -9.033263 10.032455 0.000000
      vertex -10.921729 7.935101 0.640000
      vertex -9.033263 10.032455 0.640000
    endloop
  endfacet
  facet normal -0.866025 0.500000 0.000000
    outer loop
      vertex -12.332864 5.490945 0.000000
      vertex -12.332864 5.490945 0.640000
      vertex -10.921729 7.935101 0.000000
    endloop
  endfacet
  facet normal -0.866025 0.500000 0.000000
    outer loop
      vertex -10.921729 7.935101 0.000000
      vertex -12.332864 5.490945 0.640000
      vertex -10.921729 7.935101 0.640000
    endloop
  endfacet
  facet normal -0.951057 0.309017 0.000000
    outer loop
      vertex -13.204993 2.806808 0.000000
      vertex -13.204993 2.806808 0.640000
      vertex -12.332864 5.490945 0.000000
    endloop
  endfacet
  facet normal -0.951057 0.309017 0.000000
    outer loop
      vertex -12.332864 5.490945 0.000000
      vertex -13.204993 2.806808 0.640000
      vertex -12.332864 5.490945 0.640000
    endloop
  endfacet
  facet normal 0.994522 0.104529 0.000000
    outer loop
      vertex -4.000000 0.000000 1.280000
      vertex -3.912590 -0.831647 1.280000
      vertex -3.912590 -0.831647 0.000000
    endloop
  endfacet
  facet normal 0.994522 0.104529 0.000000
    outer loop
      vertex -4.000000 0.000000 0.000000
      vertex -4.000000 0.000000 1.280000
      vertex -3.912590 -0.831647 0.000000
    endloop
  endfacet
  facet normal 0.994522 -0.104529 0.000000
    outer loop
      vertex -3.912590 0.831647 0.000000
      vertex -3.912590 0.831647 1.280000
      vertex -4.000000 0.000000 1.280000
    endloop
  endfacet
  facet normal 0.994522 -0.104529 0.000000
    outer loop
      vertex -4.000000 0.000000 0.000000
      vertex -3.912590 0.831647 0.000000
      vertex -4.000000 0.000000 1.280000
    endloop
  endfacet
  facet normal 0.951057 -0.309016 0.000000
    outer loop
      vertex -3.654182 1.626947 0.000000
      vertex -3.654182 1.626947 1.280000
      vertex -3.912590 0.831647 1.280000
    endloop
  endfacet
  facet normal 0.951057 -0.309016 0.000000
    outer loop
      vertex -3.912590 0.831647 0.000000
      vertex -3.654182 1.626947 0.000000
      vertex -3.912590 0.831647 1.280000
    endloop
  endfacet
  facet normal 0.866025 -0.500000 0.000000
    outer loop
      vertex -3.236068 2.351141 0.000000
      vertex -3.236068 2.351141 1.280000
      vertex -3.654182 1.626947 1.280000
    endloop
  endfacet
  facet normal 0.866025 -0.500000 0.000000
    outer loop
      vertex -3.654182 1.626947 0.000000
      vertex -3.236068 2.351141 0.000000
      vertex -3.654182 1.626947 1.280000
    endloop
  endfacet
  facet normal 0.743144 -0.669131 0.000000
    outer loop
      vertex -2.676522 2.972579 0.000000
      vertex -2.676522 2.972579 1.280000
      vertex -3.236068 2.351141 1.280000
    endloop
  endfacet
  facet normal 0.743144 -0.669131 0.000000
    outer loop
      vertex -3.236068 2.351141 0.000000
      vertex -2.676522 2.972579 0.000000
      vertex -3.236068 2.351141 1.280000
    endloop
  endfacet
  facet normal 0.587786 -0.809016 0.000000
    outer loop
      vertex -2.000000 3.464102 0.000000
      vertex -2.000000 3.464102 1.280000
      vertex -2.676522 2.972579 1.280000
    endloop
  endfacet
  facet normal 0.587786 -0.809016 0.000000
    outer loop
      vertex -2.676522 2.972579 0.000000
      vertex -2.000000 3.464102 0.000000
      vertex -2.676522 2.972579 1.280000
    endloop
  endfacet
  facet normal 0.406736 -0.913546 0.000000
    outer loop
      vertex -1.236068 3.804226 0.000000
      vertex -1.236068 3.804226 1.280000
      vertex -2.000000 3.464102 1.280000
    endloop
  endfacet
  facet normal 0.406736 -0.913546 0.000000
    outer loop
      vertex -2.000000 3.464102 0.000000
      vertex -1.236068 3.804226 0.000000
      vertex -2.000000 3.464102 1.280000
    endloop
  endfacet
  facet normal 0.207912 -0.978147 0.000000
    outer loop
      vertex -0.418114 3.978088 0.000000
      vertex -0.418114 3.978088 1.280000
      vertex -1.236068 3.804226 1.280000
    endloop
  endfacet
  facet normal 0.207912 -0.978147 0.000000
    outer loop
      vertex -1.236068 3.804226 0.000000
      vertex -0.418114 3.978088 0.000000
      vertex -1.236068 3.804226 1.280000
    endloop
  endfacet
  facet normal 0.000000 -1.000000 0.000000
    outer loop
      vertex 0.418114 3.978088 0.000000
      vertex 0.418114 3.978088 1.280000
      vertex -0.418114 3.978088 1.280000
    endloop
  endfacet
  facet normal -0.000000 -1.000000 -0.000000
    outer loop
      vertex -0.418114 3.978088 0.000000
      vertex 0.418114 3.978088 0.000000
      vertex -0.418114 3.978088 1.280000
    endloop
  endfacet
  facet normal -0.207912 -0.978147 -0.000000
    outer loop
      vertex 1.236068 3.804226 0.000000
      vertex 1.236068 3.804226 1.280000
      vertex 0.418114 3.978088 1.280000
    endloop
  endfacet
  facet normal -0.207912 -0.978147 -0.000000
    outer loop
      vertex 0.418114 3.978088 0.000000
      vertex 1.236068 3.804226 0.000000
      vertex 0.418114 3.978088 1.280000
    endloop
  endfacet
  facet normal -0.406736 -0.913546 -0.000000
    outer loop
      vertex 2.000000 3.464102 0.000000
      vertex 2.000000 3.464102 1.280000
      vertex 1.236068 3.804226 1.280000
    endloop
  endfacet
  facet normal -0.406736 -0.913546 -0.000000
    outer loop
      vertex 1.236068 3.804226 0.000000
      vertex 2.000000 3.464102 0.000000
      vertex 1.236068 3.804226 1.280000
    endloop
  endfacet
  facet normal -0.587786 -0.809016 -0.000000
    outer loop
      vertex 2.676522 2.972579 0.000000
      vertex 2.676522 2.972579 1.280000
      vertex 2.000000 3.464102 1.280000
    endloop
  endfacet
  facet normal -0.587786 -0.809016 -0.000000
    outer loop
      vertex 2.000000 3.464102 0.000000
      vertex 2.676522 2.972579 0.000000
      vertex 2.000000 3.464102 1.280000
    endloop
  endfacet
  facet normal -0.743144 -0.669131 0.000000
    outer loop
      vertex 3.236068 2.351141 1.280000
      vertex 2.676522 2.972579 1.280000
      vertex 3.236068 2.351141 0.000000
    endloop
  endfacet
  facet normal -0.743144 -0.669131 0.000000
    outer loop
      vertex 3.236068 2.351141 0.000000
      vertex 2.676522 2.972579 1.280000
      vertex 2.676522 2.972579 0.000000
    endloop
  endfacet
  facet normal -0.866025 -0.500000 0.000000
    outer loop
      vertex 3.654182 1.626947 1.280000
      vertex 3.236068 2.351141 1.280000
      vertex 3.654182 1.626947 0.000000
    endloop
  endfacet
  facet normal -0.866025 -0.500000 0.000000
    outer loop
      vertex 3.654182 1.626947 0.000000
      vertex 3.236068 2.351141 1.280000
      vertex 3.236068 2.351141 0.000000
    endloop
  endfacet
  facet normal -0.951057 -0.309016 0.000000
    outer loop
      vertex 3.912590 0.831647 1.280000
      vertex 3.654182 1.626947 1.280000
      vertex 3.912590 0.831647 0.000000
    endloop
  endfacet
  facet normal -0.951057 -0.309016 0.000000
    outer loop
      vertex 3.912590 0.831647 0.000000
      vertex 3.654182 1.626947 1.280000
      vertex 3.654182 1.626947 0.000000
    endloop
  endfacet
  facet normal -0.994522 -0.104529 0.000000
    outer loop
      vertex 4.000000 0.000000 1.280000
      vertex 3.912590 0.831647 1.280000
      vertex 4.000000 0.000000 0.000000
    endloop
  endfacet
  facet normal -0.994522 -0.104529 0.000000
    outer loop
      vertex 4.000000 0.000000 0.000000
      vertex 3.912590 0.831647 1.280000
      vertex 3.912590 0.831647 0.000000
    endloop
  endfacet
  facet normal -0.994522 0.104529 0.000000
    outer loop
      vertex 4.000000 0.000000 1.280000
      vertex 4.000000 0.000000 0.000000
      vertex 3.912590 -0.831647 1.280000
    endloop
  endfacet
  facet normal -0.994522 0.104529 0.000000
    outer loop
      vertex 3.912590 -0.831647 1.280000
      vertex 4.000000 0.000000 0.000000
      vertex 3.912590 -0.831647 0.000000
    endloop
  endfacet
  facet normal -0.951057 0.309016 0.000000
    outer loop
      vertex 3.912590 -0.831647 1.280000
      vertex 3.912590 -0.831647 0.000000
      vertex 3.654182 -1.626947 1.280000
    endloop
  endfacet
  facet normal -0.951057 0.309016 0.000000
    outer loop
      vertex 3.654182 -1.626947 1.280000
      vertex 3.912590 -0.831647 0.000000
      vertex 3.654182 -1.626947 0.000000
    endloop
  endfacet
  facet normal -0.866025 0.500000 0.000000
    outer loop
      vertex 3.654182 -1.626947 1.280000
      vertex 3.654182 -1.626947 0.000000
      vertex 3.236068 -2.351141 1.280000
    endloop
  endfacet
  facet normal -0.866025 0.500000 0.000000
    outer loop
      vertex 3.236068 -2.351141 1.280000
      vertex 3.654182 -1.626947 0.000000
      vertex 3.236068 -2.351141 0.000000
    endloop
  endfacet
  facet normal -0.743144 0.669131 0.000000
    outer loop
      vertex 3.236068 -2.351141 1.280000
      vertex 3.236068 -2.351141 0.000000
      vertex 2.676522 -2.972579 1.280000
    endloop
  endfacet
  facet normal -0.743144 0.669131 0.000000
    outer loop
      vertex 2.676522 -2.972579 1.280000
      vertex 3.236068 -2.351141 0.000000
      vertex 2.676522 -2.972579 0.000000
    endloop
  endfacet
  facet normal -0.587786 0.809016 0.000000
    outer loop
      vertex 2.676522 -2.972579 1.280000
      vertex 2.676522 -2.972579 0.000000
      vertex 2.000000 -3.464102 1.280000
    endloop
  endfacet
  facet normal -0.587786 0.809016 0.000000
    outer loop
      vertex 2.000000 -3.464102 1.280000
      vertex 2.676522 -2.972579 0.000000
      vertex 2.000000 -3.464102 0.000000
    endloop
  endfacet
  facet normal -0.406736 0.913546 0.000000
    outer loop
      vertex 2.000000 -3.464102 1.280000
      vertex 2.000000 -3.464102 0.000000
      vertex 1.236068 -3.804226 1.280000
    endloop
  endfacet
  facet normal -0.406736 0.913546 0.000000
    outer loop
      vertex 1.236068 -3.804226 1.280000
      vertex 2.000000 -3.464102 0.000000
      vertex 1.236068 -3.804226 0.000000
    endloop
  endfacet
  facet normal -0.207912 0.978147 0.000000
    outer loop
      vertex 1.236068 -3.804226 1.280000
      vertex 1.236068 -3.804226 0.000000
      vertex 0.418114 -3.978088 1.280000
    endloop
  endfacet
  facet normal -0.207912 0.978147 0.000000
    outer loop
      vertex 0.418114 -3.978088 1.280000
      vertex 1.236068 -3.804226 0.000000
      vertex 0.418114 -3.978088 0.000000
    endloop
  endfacet
  facet normal 0.000000 1.000000 0.000000
    outer loop
      vertex 0.418114 -3.978088 1.280000
      vertex 0.418114 -3.978088 0.000000
      vertex -0.418114 -3.978088 1.280000
    endloop
  endfacet
  facet normal 0.000000 1.000000 -0.000000
    outer loop
      vertex -0.418114 -3.978088 1.280000
      vertex 0.418114 -3.978088 0.000000
      vertex -0.418114 -3.978088 0.000000
    endloop
  endfacet
  facet normal 0.207912 0.978147 -0.000000
    outer loop
      vertex -0.418114 -3.978088 1.280000
      vertex -0.418114 -3.978088 0.000000
      vertex -1.236068 -3.804226 1.280000
    endloop
  endfacet
  facet normal 0.207912 0.978147 -0.000000
    outer loop
      vertex -1.236068 -3.804226 1.280000
      vertex -0.418114 -3.978088 0.000000
      vertex -1.236068 -3.804226 0.000000
    endloop
  endfacet
  facet normal 0.406736 0.913546 -0.000000
    outer loop
      vertex -1.236068 -3.804226 1.280000
      vertex -1.236068 -3.804226 0.000000
      vertex -2.000000 -3.464102 1.280000
    endloop
  endfacet
  facet normal 0.406736 0.913546 -0.000000
    outer loop
      vertex -2.000000 -3.464102 1.280000
      vertex -1.236068 -3.804226 0.000000
      vertex -2.000000 -3.464102 0.000000
    endloop
  endfacet
  facet normal 0.587786 0.809016 -0.000000
    outer loop
      vertex -2.000000 -3.464102 1.280000
      vertex -2.000000 -3.464102 0.000000
      vertex -2.676522 -2.972579 1.280000
    endloop
  endfacet
  facet normal 0.587786 0.809016 -0.000000
    outer loop
      vertex -2.676522 -2.972579 1.280000
      vertex -2.000000 -3.464102 0.000000
      vertex -2.676522 -2.972579 0.000000
    endloop
  endfacet
  facet normal 0.743144 0.669131 0.000000
    outer loop
      vertex -3.236068 -2.351141 1.280000
      vertex -2.676522 -2.972579 1.280000
      vertex -2.676522 -2.972579 0.000000
    endloop
  endfacet
  facet normal 0.743144 0.669131 0.000000
    outer loop
      vertex -3.236068 -2.351141 0.000000
      vertex -3.236068 -2.351141 1.280000
      vertex -2.676522 -2.972579 0.000000
    endloop
  endfacet
  facet normal 0.866025 0.500000 0.000000
    outer loop
      vertex -3.654182 -1.626947 1.280000
      vertex -3.236068 -2.351141 1.280000
      vertex -3.236068 -2.351141 0.000000
    endloop
  endfacet
  facet normal 0.866025 0.500000 0.000000
    outer loop
      vertex -3.654182 -1.626947 0.000000
      vertex -3.654182 -1.626947 1.280000
      vertex -3.236068 -2.351141 0.000000
    endloop
  endfacet
  facet normal 0.951057 0.309016 0.000000
    outer loop
      vertex -3.912590 -0.831647 1.280000
      vertex -3.654182 -1.626947 1.280000
      vertex -3.654182 -1.626947 0.000000
    endloop
  endfacet
  facet normal 0.951057 0.309016 0.000000
    outer loop
      vertex -3.912590 -0.831647 0.000000
      vertex -3.912590 -0.831647 1.280000
      vertex -3.654182 -1.626947 0.000000
    endloop
  endfacet
  facet normal 0.000000 0.000000 1.000000
    outer loop
      vertex -13.204993 2.806808 0.640000
      vertex -13.500000 0.000000 0.640000
      vertex -13.204993 -2.806808 0.640000
    endloop
  endfacet
  facet normal 0.000000 0.000000 1.000000
    outer loop
      vertex -10.921729 -7.935101 0.640000
      vertex -13.204993 2.806808 0.640000
      vertex -12.332864 -5.490945 0.640000
    endloop
  endfacet
  facet normal 0.000000 0.000000 1.000000
    outer loop
      vertex -12.332864 -5.490945 0.640000
      vertex -13.204993 2.806808 0.640000
      vertex -13.204993 -2.806808 0.640000
    endloop
  endfacet
  facet normal 0.000000 0.000000 1.000000
    outer loop
      vertex -9.033263 -10.032455 0.640000
      vertex -13.204993 2.806808 0.640000
      vertex -10.921729 -7.935101 0.640000
    endloop
  endfacet
  facet normal 0.000000 0.000000 1.000000
    outer loop
      vertex -6.750000 -11.691343 0.640000
      vertex -13.204993 2.806808 0.640000
      vertex -9.033263 -10.032455 0.640000
    endloop
  endfacet
  facet normal 0.000000 0.000000 1.000000
    outer loop
      vertex -4.171729 -12.839263 0.640000
      vertex -13.204993 2.806808 0.640000
      vertex -6.750000 -11.691343 0.640000
    endloop
  endfacet
  facet normal 0.000000 0.000000 1.000000
    outer loop
      vertex -1.411134 -13.426046 0.640000
      vertex -13.204993 2.806808 0.640000
      vertex -4.171729 -12.839263 0.640000
    endloop
  endfacet
  facet normal -0.000000 0.000000 1.000000
    outer loop
      vertex 1.411134 -13.426046 0.640000
      vertex -13.204993 2.806808 0.640000
      vertex -1.411134 -13.426046 0.640000
    endloop
  endfacet
  facet normal -0.000000 0.000000 1.000000
    outer loop
      vertex 4.171729 -12.839263 0.640000
      vertex -13.204993 2.806808 0.640000
      vertex 1.411134 -13.426046 0.640000
    endloop
  endfacet
  facet normal -0.000000 -0.000000 1.000000
    outer loop
      vertex -4.014784 -4.458869 0.640000
      vertex -13.204993 2.806808 0.640000
      vertex 4.171729 -12.839263 0.640000
    endloop
  endfacet
  facet normal 0.000000 0.000000 1.000000
    outer loop
      vertex -4.014784 -4.458869 0.640000
      vertex -4.854102 -3.526712 0.640000
      vertex -13.204993 2.806808 0.640000
    endloop
  endfacet
  facet normal 0.000000 -0.000000 1.000000
    outer loop
      vertex 1.854102 -5.706339 0.640000
      vertex 0.627171 -5.967131 0.640000
      vertex 9.033263 -10.032455 0.640000
    endloop
  endfacet
  facet normal 0.000000 0.000000 1.000000
    outer loop
      vertex 5.868886 1.247470 0.640000
      vertex 6.000000 0.000000 0.640000
      vertex 13.500000 0.000000 0.640000
    endloop
  endfacet
  facet normal 0.000000 -0.000000 1.000000
    outer loop
      vertex 6.750000 11.691343 0.640000
      vertex -13.204993 2.806808 0.640000
      vertex 9.033263 10.032455 0.640000
    endloop
  endfacet
  facet normal 0.000000 -0.000000 1.000000
    outer loop
      vertex 4.171729 12.839263 0.640000
      vertex -13.204993 2.806808 0.640000
      vertex 6.750000 11.691343 0.640000
    endloop
  endfacet
  facet normal 0.000000 -0.000000 1.000000
    outer loop
      vertex 1.411134 13.426046 0.640000
      vertex -13.204993 2.806808 0.640000
      vertex 4.171729 12.839263 0.640000
    endloop
  endfacet
  facet normal 0.000000 -0.000000 1.000000
    outer loop
      vertex -1.411134 13.426046 0.640000
      vertex -13.204993 2.806808 0.640000
      vertex 1.411134 13.426046 0.640000
    endloop
  endfacet
  facet normal 0.000000 -0.000000 1.000000
    outer loop
      vertex -4.171729 12.839263 0.640000
      vertex -13.204993 2.806808 0.640000
      vertex -1.411134 13.426046 0.640000
    endloop
  endfacet
  facet normal 0.000000 -0.000000 1.000000
    outer loop
      vertex -6.750000 11.691343 0.640000
      vertex -13.204993 2.806808 0.640000
      vertex -4.171729 12.839263 0.640000
    endloop
  endfacet
  facet normal 0.000000 -0.000000 1.000000
    outer loop
      vertex -9.033263 10.032455 0.640000
      vertex -13.204993 2.806808 0.640000
      vertex -6.750000 11.691343 0.640000
    endloop
  endfacet
  facet normal 0.000000 -0.000000 1.000000
    outer loop
      vertex -10.921729 7.935101 0.640000
      vertex -13.204993 2.806808 0.640000
      vertex -9.033263 10.032455 0.640000
    endloop
  endfacet
  facet normal 0.000000 -0.000000 1.000000
    outer loop
      vertex -12.332864 5.490945 0.640000
      vertex -13.204993 2.806808 0.640000
      vertex -10.921729 7.935101 0.640000
    endloop
  endfacet
  facet normal -0.000000 -0.000000 1.000000
    outer loop
      vertex -0.627171 -5.967131 0.640000
      vertex -1.854102 -5.706339 0.640000
      vertex 6.750000 -11.691343 0.640000
    endloop
  endfacet
  facet normal 0.000000 0.000000 1.000000
    outer loop
      vertex -6.000000 0.000000 0.640000
      vertex -5.868886 1.247470 0.640000
      vertex -13.204993 2.806808 0.640000
    endloop
  endfacet
  facet normal 0.000000 0.000000 1.000000
    outer loop
      vertex -4.854102 -3.526712 0.640000
      vertex -5.481273 -2.440420 0.640000
      vertex -13.204993 2.806808 0.640000
    endloop
  endfacet
  facet normal 0.000000 -0.000000 1.000000
    outer loop
      vertex 4.014784 -4.458869 0.640000
      vertex 3.000000 -5.196152 0.640000
      vertex 10.921729 -7.935101 0.640000
    endloop
  endfacet
  facet normal 0.000000 -0.000000 1.000000
    outer loop
      vertex 5.868886 -1.247470 0.640000
      vertex 5.481273 -2.440420 0.640000
      vertex 13.204993 -2.806808 0.640000
    endloop
  endfacet
  facet normal -0.000000 0.000000 1.000000
    outer loop
      vertex -4.854102 3.526712 0.640000
      vertex -4.014784 4.458869 0.640000
      vertex -13.204993 2.806808 0.640000
    endloop
  endfacet
  facet normal 0.000000 -0.000000 1.000000
    outer loop
      vertex 5.481273 -2.440420 0.640000
      vertex 4.854102 -3.526712 0.640000
      vertex 12.332864 -5.490945 0.640000
    endloop
  endfacet
  facet normal -0.000000 0.000000 1.000000
    outer loop
      vertex -4.014784 4.458869 0.640000
      vertex -3.000000 5.196152 0.640000
      vertex -13.204993 2.806808 0.640000
    endloop
  endfacet
  facet normal 0.000000 0.000000 1.000000
    outer loop
      vertex 4.854102 3.526712 0.640000
      vertex 5.481273 2.440420 0.640000
      vertex 13.204993 2.806808 0.640000
    endloop
  endfacet
  facet normal 0.000000 0.000000 1.000000
    outer loop
      vertex -1.854102 5.706339 0.640000
      vertex -0.627171 5.967131 0.640000
      vertex 9.033263 10.032455 0.640000
    endloop
  endfacet
  facet normal 0.000000 0.000000 1.000000
    outer loop
      vertex 3.000000 5.196152 0.640000
      vertex 4.014784 4.458869 0.640000
      vertex 12.332864 5.490945 0.640000
    endloop
  endfacet
  facet normal 0.000000 0.000000 1.000000
    outer loop
      vertex -1.854102 5.706339 0.640000
      vertex -13.204993 2.806808 0.640000
      vertex -3.000000 5.196152 0.640000
    endloop
  endfacet
  facet normal 0.000000 0.000000 1.000000
    outer loop
      vertex 9.033263 10.032455 0.640000
      vertex -13.204993 2.806808 0.640000
      vertex -1.854102 5.706339 0.640000
    endloop
  endfacet
  facet normal 0.000000 -0.000000 1.000000
    outer loop
      vertex 9.033263 10.032455 0.640000
      vertex -0.627171 5.967131 0.640000
      vertex 10.921729 7.935101 0.640000
    endloop
  endfacet
  facet normal 0.000000 0.000000 1.000000
    outer loop
      vertex -0.627171 5.967131 0.640000
      vertex 0.627171 5.967131 0.640000
      vertex 10.921729 7.935101 0.640000
    endloop
  endfacet
  facet normal 0.000000 -0.000000 1.000000
    outer loop
      vertex 10.921729 7.935101 0.640000
      vertex 1.854102 5.706339 0.640000
      vertex 12.332864 5.490945 0.640000
    endloop
  endfacet
  facet normal 0.000000 0.000000 1.000000
    outer loop
      vertex 1.854102 5.706339 0.640000
      vertex 3.000000 5.196152 0.640000
      vertex 12.332864 5.490945 0.640000
    endloop
  endfacet
  facet normal 0.000000 -0.000000 1.000000
    outer loop
      vertex 12.332864 5.490945 0.640000
      vertex 4.014784 4.458869 0.640000
      vertex 13.204993 2.806808 0.640000
    endloop
  endfacet
  facet normal 0.000000 0.000000 1.000000
    outer loop
      vertex 4.014784 4.458869 0.640000
      vertex 4.854102 3.526712 0.640000
      vertex 13.204993 2.806808 0.640000
    endloop
  endfacet
  facet normal 0.000000 -0.000000 1.000000
    outer loop
      vertex 13.204993 2.806808 0.640000
      vertex 5.481273 2.440420 0.640000
      vertex 13.500000 0.000000 0.640000
    endloop
  endfacet
  facet normal 0.000000 0.000000 1.000000
    outer loop
      vertex 5.481273 2.440420 0.640000
      vertex 5.868886 1.247470 0.640000
      vertex 13.500000 0.000000 0.640000
    endloop
  endfacet
  facet normal 0.000000 0.000000 1.000000
    outer loop
      vertex 13.500000 0.000000 0.640000
      vertex 6.000000 0.000000 0.640000
      vertex 13.204993 -2.806808 0.640000
    endloop
  endfacet
  facet normal 0.000000 0.000000 1.000000
    outer loop
      vertex -5.481273 2.440420 0.640000
      vertex -4.854102 3.526712 0.640000
      vertex -13.204993 2.806808 0.640000
    endloop
  endfacet
  facet normal 0.000000 -0.000000 1.000000
    outer loop
      vertex 6.000000 0.000000 0.640000
      vertex 5.868886 -1.247470 0.640000
      vertex 13.204993 -2.806808 0.640000
    endloop
  endfacet
  facet normal 0.000000 0.000000 1.000000
    outer loop
      vertex 0.627171 5.967131 0.640000
      vertex 1.854102 5.706339 0.640000
      vertex 10.921729 7.935101 0.640000
    endloop
  endfacet
  facet normal -0.000000 0.000000 1.000000
    outer loop
      vertex 13.204993 -2.806808 0.640000
      vertex 5.481273 -2.440420 0.640000
      vertex 12.332864 -5.490945 0.640000
    endloop
  endfacet
  facet normal -0.000000 0.000000 1.000000
    outer loop
      vertex 12.332864 -5.490945 0.640000
      vertex 4.854102 -3.526712 0.640000
      vertex 10.921729 -7.935101 0.640000
    endloop
  endfacet
  facet normal 0.000000 -0.000000 1.000000
    outer loop
      vertex 4.854102 -3.526712 0.640000
      vertex 4.014784 -4.458869 0.640000
      vertex 10.921729 -7.935101 0.640000
    endloop
  endfacet
  facet normal -0.000000 0.000000 1.000000
    outer loop
      vertex 10.921729 -7.935101 0.640000
      vertex 3.000000 -5.196152 0.640000
      vertex 9.033263 -10.032455 0.640000
    endloop
  endfacet
  facet normal 0.000000 -0.000000 1.000000
    outer loop
      vertex 3.000000 -5.196152 0.640000
      vertex 1.854102 -5.706339 0.640000
      vertex 9.033263 -10.032455 0.640000
    endloop
  endfacet
  facet normal -0.000000 0.000000 1.000000
    outer loop
      vertex 9.033263 -10.032455 0.640000
      vertex 0.627171 -5.967131 0.640000
      vertex 6.750000 -11.691343 0.640000
    endloop
  endfacet
  facet normal 0.000000 0.000000 1.000000
    outer loop
      vertex -5.868886 -1.247470 0.640000
      vertex -6.000000 0.000000 0.640000
      vertex -13.204993 2.806808 0.640000
    endloop
  endfacet
  facet normal 0.000000 -0.000000 1.000000
    outer loop
      vertex 0.627171 -5.967131 0.640000
      vertex -0.627171 -5.967131 0.640000
      vertex 6.750000 -11.691343 0.640000
    endloop
  endfacet
  facet normal -0.000000 0.000000 1.000000
    outer loop
      vertex 6.750000 -11.691343 0.640000
      vertex -1.854102 -5.706339 0.640000
      vertex 4.171729 -12.839263 0.640000
    endloop
  endfacet
  facet normal -0.000000 -0.000000 1.000000
    outer loop
      vertex -1.854102 -5.706339 0.640000
      vertex -3.000000 -5.196152 0.640000
      vertex 4.171729 -12.839263 0.640000
    endloop
  endfacet
  facet normal -0.000000 -0.000000 1.000000
    outer loop
      vertex -3.000000 -5.196152 0.640000
      vertex -4.014784 -4.458869 0.640000
      vertex 4.171729 -12.839263 0.640000
    endloop
  endfacet
  facet normal 0.000000 0.000000 1.000000
    outer loop
      vertex -5.481273 -2.440420 0.640000
      vertex -5.868886 -1.247470 0.640000
      vertex -13.204993 2.806808 0.640000
    endloop
  endfacet
  facet normal 0.000000 0.000000 1.000000
    outer loop
      vertex -5.868886 1.247470 0.640000
      vertex -5.481273 2.440420 0.640000
      vertex -13.204993 2.806808 0.640000
    endloop
  endfacet
  facet normal 0.000000 0.000000 1.000000
    outer loop
      vertex -5.868886 1.247470 1.280000
      vertex -6.000000 0.000000 1.280000
      vertex -5.868886 -1.247470 1.280000
    endloop
  endfacet
  facet normal 0.000000 0.000000 1.000000
    outer loop
      vertex -4.854102 -3.526712 1.280000
      vertex -5.868886 1.247470 1.280000
      vertex -5.481273 -2.440420 1.280000
    endloop
  endfacet
  facet normal 0.000000 0.000000 1.000000
    outer loop
      vertex -5.481273 -2.440420 1.280000
      vertex -5.868886 1.247470 1.280000
      vertex -5.868886 -1.247470 1.280000
    endloop
  endfacet
  facet normal 0.000000 0.000000 1.000000
    outer loop
      vertex -4.014784 -4.458869 1.280000
      vertex -5.868886 1.247470 1.280000
      vertex -4.854102 -3.526712 1.280000
    endloop
  endfacet
  facet normal 0.000000 0.000000 1.000000
    outer loop
      vertex -3.000000 -5.196152 1.280000
      vertex -5.868886 1.247470 1.280000
      vertex -4.014784 -4.458869 1.280000
    endloop
  endfacet
  facet normal 0.000000 0.000000 1.000000
    outer loop
      vertex -1.854102 -5.706339 1.280000
      vertex -5.868886 1.247470 1.280000
      vertex -3.000000 -5.196152 1.280000
    endloop
  endfacet
  facet normal 0.000000 0.000000 1.000000
    outer loop
      vertex -0.627171 -5.967131 1.280000
      vertex -5.868886 1.247470 1.280000
      vertex -1.854102 -5.706339 1.280000
    endloop
  endfacet
  facet normal -0.000000 -0.000000 1.000000
    outer loop
      vertex -3.236068 -2.351141 1.280000
      vertex -5.868886 1.247470 1.280000
      vertex -0.627171 -5.967131 1.280000
    endloop
  endfacet
  facet normal 0.000000 -0.000000 1.000000
    outer loop
      vertex 3.236068 -2.351141 1.280000
      vertex 2.676522 -2.972579 1.280000
      vertex 4.854102 -3.526712 1.280000
    endloop
  endfacet
  facet normal 0.000000 0.000000 1.000000
    outer loop
      vertex -3.912590 0.831647 1.280000
      vertex -3.654182 1.626947 1.280000
      vertex -5.868886 1.247470 1.280000
    endloop
  endfacet
  facet normal 0.000000 -0.000000 1.000000
    outer loop
      vertex 2.676522 -2.972579 1.280000
      vertex 2.000000 -3.464102 1.280000
      vertex 4.014784 -4.458869 1.280000
    endloop
  endfacet
  facet normal 0.000000 0.000000 1.000000
    outer loop
      vertex 3.236068 2.351141 1.280000
      vertex 3.654182 1.626947 1.280000
      vertex 5.481273 2.440420 1.280000
    endloop
  endfacet
  facet normal 0.000000 0.000000 1.000000
    outer loop
      vertex -0.418114 3.978088 1.280000
      vertex 0.418114 3.978088 1.280000
      vertex 3.000000 5.196152 1.280000
    endloop
  endfacet
  facet normal 0.000000 0.000000 1.000000
    outer loop
      vertex 1.236068 3.804226 1.280000
      vertex 2.000000 3.464102 1.280000
      vertex 4.014784 4.458869 1.280000
    endloop
  endfacet
  facet normal 0.000000 -0.000000 1.000000
    outer loop
      vertex 0.627171 5.967131 1.280000
      vertex -5.868886 1.247470 1.280000
      vertex 1.854102 5.706339 1.280000
    endloop
  endfacet
  facet normal 0.000000 -0.000000 1.000000
    outer loop
      vertex -0.627171 5.967131 1.280000
      vertex -5.868886 1.247470 1.280000
      vertex 0.627171 5.967131 1.280000
    endloop
  endfacet
  facet normal 0.000000 -0.000000 1.000000
    outer loop
      vertex -1.854102 5.706339 1.280000
      vertex -5.868886 1.247470 1.280000
      vertex -0.627171 5.967131 1.280000
    endloop
  endfacet
  facet normal 0.000000 -0.000000 1.000000
    outer loop
      vertex -3.000000 5.196152 1.280000
      vertex -5.868886 1.247470 1.280000
      vertex -1.854102 5.706339 1.280000
    endloop
  endfacet
  facet normal 0.000000 -0.000000 1.000000
    outer loop
      vertex -4.014784 4.458869 1.280000
      vertex -5.868886 1.247470 1.280000
      vertex -3.000000 5.196152 1.280000
    endloop
  endfacet
  facet normal 0.000000 -0.000000 1.000000
    outer loop
      vertex -4.854102 3.526712 1.280000
      vertex -5.868886 1.247470 1.280000
      vertex -4.014784 4.458869 1.280000
    endloop
  endfacet
  facet normal 0.000000 -0.000000 1.000000
    outer loop
      vertex -5.481273 2.440420 1.280000
      vertex -5.868886 1.247470 1.280000
      vertex -4.854102 3.526712 1.280000
    endloop
  endfacet
  facet normal 0.000000 0.000000 1.000000
    outer loop
      vertex -3.236068 -2.351141 1.280000
      vertex -3.654182 -1.626947 1.280000
      vertex -5.868886 1.247470 1.280000
    endloop
  endfacet
  facet normal 0.000000 -0.000000 1.000000
    outer loop
      vertex 3.654182 -1.626947 1.280000
      vertex 3.236068 -2.351141 1.280000
      vertex 5.481273 -2.440420 1.280000
    endloop
  endfacet
  facet normal 0.000000 0.000000 1.000000
    outer loop
      vertex 3.654182 1.626947 1.280000
      vertex 3.912590 0.831647 1.280000
      vertex 5.868886 1.247470 1.280000
    endloop
  endfacet
  facet normal 0.000000 0.000000 1.000000
    outer loop
      vertex -2.000000 3.464102 1.280000
      vertex -1.236068 3.804226 1.280000
      vertex 1.854102 5.706339 1.280000
    endloop
  endfacet
  facet normal 0.000000 0.000000 1.000000
    outer loop
      vertex 2.000000 3.464102 1.280000
      vertex 2.676522 2.972579 1.280000
      vertex 4.854102 3.526712 1.280000
    endloop
  endfacet
  facet normal 0.000000 0.000000 1.000000
    outer loop
      vertex -2.000000 3.464102 1.280000
      vertex -5.868886 1.247470 1.280000
      vertex -2.676522 2.972579 1.280000
    endloop
  endfacet
  facet normal 0.000000 0.000000 1.000000
    outer loop
      vertex 1.854102 5.706339 1.280000
      vertex -5.868886 1.247470 1.280000
      vertex -2.000000 3.464102 1.280000
    endloop
  endfacet
  facet normal 0.000000 -0.000000 1.000000
    outer loop
      vertex 1.854102 5.706339 1.280000
      vertex -1.236068 3.804226 1.280000
      vertex 3.000000 5.196152 1.280000
    endloop
  endfacet
  facet normal 0.000000 0.000000 1.000000
    outer loop
      vertex -1.236068 3.804226 1.280000
      vertex -0.418114 3.978088 1.280000
      vertex 3.000000 5.196152 1.280000
    endloop
  endfacet
  facet normal 0.000000 -0.000000 1.000000
    outer loop
      vertex 3.000000 5.196152 1.280000
      vertex 0.418114 3.978088 1.280000
      vertex 4.014784 4.458869 1.280000
    endloop
  endfacet
  facet normal 0.000000 0.000000 1.000000
    outer loop
      vertex 0.418114 3.978088 1.280000
      vertex 1.236068 3.804226 1.280000
      vertex 4.014784 4.458869 1.280000
    endloop
  endfacet
  facet normal 0.000000 -0.000000 1.000000
    outer loop
      vertex 4.014784 4.458869 1.280000
      vertex 2.000000 3.464102 1.280000
      vertex 4.854102 3.526712 1.280000
    endloop
  endfacet
  facet normal -0.000000 0.000000 1.000000
    outer loop
      vertex -3.236068 2.351141 1.280000
      vertex -2.676522 2.972579 1.280000
      vertex -5.868886 1.247470 1.280000
    endloop
  endfacet
  facet normal 0.000000 -0.000000 1.000000
    outer loop
      vertex 4.854102 3.526712 1.280000
      vertex 2.676522 2.972579 1.280000
      vertex 5.481273 2.440420 1.280000
    endloop
  endfacet
  facet normal 0.000000 0.000000 1.000000
    outer loop
      vertex 2.676522 2.972579 1.280000
      vertex 3.236068 2.351141 1.280000
      vertex 5.481273 2.440420 1.280000
    endloop
  endfacet
  facet normal 0.000000 -0.000000 1.000000
    outer loop
      vertex 5.481273 2.440420 1.280000
      vertex 3.654182 1.626947 1.280000
      vertex 5.868886 1.247470 1.280000
    endloop
  endfacet
  facet normal 0.000000 0.000000 1.000000
    outer loop
      vertex 3.912590 0.831647 1.280000
      vertex 4.000000 0.000000 1.280000
      vertex 6.000000 0.000000 1.280000
    endloop
  endfacet
  facet normal 0.000000 -0.000000 1.000000
    outer loop
      vertex 5.868886 1.247470 1.280000
      vertex 3.912590 0.831647 1.280000
      vertex 6.000000 0.000000 1.280000
    endloop
  endfacet
  facet normal -0.000000 0.000000 1.000000
    outer loop
      vertex -3.654182 1.626947 1.280000
      vertex -3.236068 2.351141 1.280000
      vertex -5.868886 1.247470 1.280000
    endloop
  endfacet
  facet normal 0.000000 0.000000 1.000000
    outer loop
      vertex 6.000000 0.000000 1.280000
      vertex 4.000000 0.000000 1.280000
      vertex 5.868886 -1.247470 1.280000
    endloop
  endfacet
  facet normal -0.000000 0.000000 1.000000
    outer loop
      vertex 5.868886 -1.247470 1.280000
      vertex 3.912590 -0.831647 1.280000
      vertex 5.481273 -2.440420 1.280000
    endloop
  endfacet
  facet normal 0.000000 -0.000000 1.000000
    outer loop
      vertex 3.912590 -0.831647 1.280000
      vertex 3.654182 -1.626947 1.280000
      vertex 5.481273 -2.440420 1.280000
    endloop
  endfacet
  facet normal -0.000000 0.000000 1.000000
    outer loop
      vertex 5.481273 -2.440420 1.280000
      vertex 3.236068 -2.351141 1.280000
      vertex 4.854102 -3.526712 1.280000
    endloop
  endfacet
  facet normal 0.000000 -0.000000 1.000000
    outer loop
      vertex 4.000000 0.000000 1.280000
      vertex 3.912590 -0.831647 1.280000
      vertex 5.868886 -1.247470 1.280000
    endloop
  endfacet
  facet normal -0.000000 0.000000 1.000000
    outer loop
      vertex 4.854102 -3.526712 1.280000
      vertex 2.676522 -2.972579 1.280000
      vertex 4.014784 -4.458869 1.280000
    endloop
  endfacet
  facet normal -0.000000 0.000000 1.000000
    outer loop
      vertex 4.014784 -4.458869 1.280000
      vertex 2.000000 -3.464102 1.280000
      vertex 3.000000 -5.196152 1.280000
    endloop
  endfacet
  facet normal 0.000000 -0.000000 1.000000
    outer loop
      vertex 2.000000 -3.464102 1.280000
      vertex 1.236068 -3.804226 1.280000
      vertex 3.000000 -5.196152 1.280000
    endloop
  endfacet
  facet normal -0.000000 0.000000 1.000000
    outer loop
      vertex 3.000000 -5.196152 1.280000
      vertex 0.418114 -3.978088 1.280000
      vertex 1.854102 -5.706339 1.280000
    endloop
  endfacet
  facet normal -0.000000 0.000000 1.000000
    outer loop
      vertex 1.854102 -5.706339 1.280000
      vertex -0.418114 -3.978088 1.280000
      vertex 0.627171 -5.967131 1.280000
    endloop
  endfacet
  facet normal -0.000000 -0.000000 1.000000
    outer loop
      vertex -0.418114 -3.978088 1.280000
      vertex -1.236068 -3.804226 1.280000
      vertex 0.627171 -5.967131 1.280000
    endloop
  endfacet
  facet normal -0.000000 0.000000 1.000000
    outer loop
      vertex 0.627171 -5.967131 1.280000
      vertex -2.000000 -3.464102 1.280000
      vertex -0.627171 -5.967131 1.280000
    endloop
  endfacet
  facet normal -0.000000 -0.000000 1.000000
    outer loop
      vertex -2.000000 -3.464102 1.280000
      vertex -2.676522 -2.972579 1.280000
      vertex -0.627171 -5.967131 1.280000
    endloop
  endfacet
  facet normal -0.000000 -0.000000 1.000000
    outer loop
      vertex -2.676522 -2.972579 1.280000
      vertex -3.236068 -2.351141 1.280000
      vertex -0.627171 -5.967131 1.280000
    endloop
  endfacet
  facet normal -0.000000 -0.000000 1.000000
    outer loop
      vertex -1.236068 -3.804226 1.280000
      vertex -2.000000 -3.464102 1.280000
      vertex 0.627171 -5.967131 1.280000
    endloop
  endfacet
  facet normal 0.000000 0.000000 1.000000
    outer loop
      vertex -3.654182 -1.626947 1.280000
      vertex -3.912590 -0.831647 1.280000
      vertex -5.868886 1.247470 1.280000
    endloop
  endfacet
  facet normal 0.000000 0.000000 1.000000
    outer loop
      vertex -3.912590 -0.831647 1.280000
      vertex -4.000000 0.000000 1.280000
      vertex -5.868886 1.247470 1.280000
    endloop
  endfacet
  facet normal 0.000000 -0.000000 1.000000
    outer loop
      vertex 0.418114 -3.978088 1.280000
      vertex -0.418114 -3.978088 1.280000
      vertex 1.854102 -5.706339 1.280000
    endloop
  endfacet
  facet normal 0.000000 -0.000000 1.000000
    outer loop
      vertex 1.236068 -3.804226 1.280000
      vertex 0.418114 -3.978088 1.280000
      vertex 3.000000 -5.196152 1.280000
    endloop
  endfacet
  facet normal 0.000000 0.000000 1.000000
    outer loop
      vertex -4.000000 0.000000 1.280000
      vertex -3.912590 0.831647 1.280000
      vertex -5.868886 1.247470 1.280000
    endloop
  endfacet
  facet normal -0.994522 -0.104528 -0.000000
    outer loop
      vertex -6.000000 0.000000 0.640000
      vertex -5.868886 -1.247470 0.640000
      vertex -6.000000 0.000000 1.280000
    endloop
  endfacet
  facet normal -0.994522 -0.104528 0.000000
    outer loop
      vertex -6.000000 0.000000 1.280000
      vertex -5.868886 -1.247470 0.640000
      vertex -5.868886 -1.247470 1.280000
    endloop
  endfacet
  facet normal -0.951057 -0.309017 -0.000000
    outer loop
      vertex -5.868886 -1.247470 0.640000
      vertex -5.481273 -2.440420 0.640000
      vertex -5.868886 -1.247470 1.280000
    endloop
  endfacet
  facet normal -0.951057 -0.309017 0.000000
    outer loop
      vertex -5.868886 -1.247470 1.280000
      vertex -5.481273 -2.440420 0.640000
      vertex -5.481273 -2.440420 1.280000
    endloop
  endfacet
  facet normal -0.866025 -0.500000 -0.000000
    outer loop
      vertex -5.481273 -2.440420 0.640000
      vertex -4.854102 -3.526712 0.640000
      vertex -5.481273 -2.440420 1.280000
    endloop
  endfacet
  facet normal -0.866025 -0.500000 0.000000
    outer loop
      vertex -5.481273 -2.440420 1.280000
      vertex -4.854102 -3.526712 0.640000
      vertex -4.854102 -3.526712 1.280000
    endloop
  endfacet
  facet normal -0.743145 -0.669131 -0.000000
    outer loop
      vertex -4.854102 -3.526712 0.640000
      vertex -4.014784 -4.458869 0.640000
      vertex -4.854102 -3.526712 1.280000
    endloop
  endfacet
  facet normal -0.743145 -0.669131 0.000000
    outer loop
      vertex -4.854102 -3.526712 1.280000
      vertex -4.014784 -4.458869 0.640000
      vertex -4.014784 -4.458869 1.280000
    endloop
  endfacet
  facet normal -0.587785 -0.809017 0.000000
    outer loop
      vertex -4.014784 -4.458869 1.280000
      vertex -4.014784 -4.458869 0.640000
      vertex -3.000000 -5.196152 0.640000
    endloop
  endfacet
  facet normal -0.587785 -0.809017 0.000000
    outer loop
      vertex -3.000000 -5.196152 1.280000
      vertex -4.014784 -4.458869 1.280000
      vertex -3.000000 -5.196152 0.640000
    endloop
  endfacet
  facet normal -0.406737 -0.913545 0.000000
    outer loop
      vertex -3.000000 -5.196152 1.280000
      vertex -3.000000 -5.196152 0.640000
      vertex -1.854102 -5.706339 0.640000
    endloop
  endfacet
  facet normal -0.406737 -0.913545 0.000000
    outer loop
      vertex -1.854102 -5.706339 1.280000
      vertex -3.000000 -5.196152 1.280000
      vertex -1.854102 -5.706339 0.640000
    endloop
  endfacet
  facet normal -0.207912 -0.978148 0.000000
    outer loop
      vertex -1.854102 -5.706339 1.280000
      vertex -1.854102 -5.706339 0.640000
      vertex -0.627171 -5.967131 0.640000
    endloop
  endfacet
  facet normal -0.207912 -0.978148 0.000000
    outer loop
      vertex -0.627171 -5.967131 1.280000
      vertex -1.854102 -5.706339 1.280000
      vertex -0.627171 -5.967131 0.640000
    endloop
  endfacet
  facet normal 0.000000 -1.000000 0.000000
    outer loop
      vertex -0.627171 -5.967131 1.280000
      vertex -0.627171 -5.967131 0.640000
      vertex 0.627171 -5.967131 0.640000
    endloop
  endfacet
  facet normal 0.000000 -1.000000 0.000000
    outer loop
      vertex 0.627171 -5.967131 1.280000
      vertex -0.627171 -5.967131 1.280000
      vertex 0.627171 -5.967131 0.640000
    endloop
  endfacet
  facet normal 0.207912 -0.978148 0.000000
    outer loop
      vertex 0.627171 -5.967131 1.280000
      vertex 0.627171 -5.967131 0.640000
      vertex 1.854102 -5.706339 0.640000
    endloop
  endfacet
  facet normal 0.207912 -0.978148 0.000000
    outer loop
      vertex 1.854102 -5.706339 1.280000
      vertex 0.627171 -5.967131 1.280000
      vertex 1.854102 -5.706339 0.640000
    endloop
  endfacet
  facet normal 0.406737 -0.913545 0.000000
    outer loop
      vertex 1.854102 -5.706339 1.280000
      vertex 1.854102 -5.706339 0.640000
      vertex 3.000000 -5.196152 0.640000
    endloop
  endfacet
  facet normal 0.406737 -0.913545 0.000000
    outer loop
      vertex 3.000000 -5.196152 1.280000
      vertex 1.854102 -5.706339 1.280000
      vertex 3.000000 -5.196152 0.640000
    endloop
  endfacet
  facet normal 0.587785 -0.809017 0.000000
    outer loop
      vertex 3.000000 -5.196152 1.280000
      vertex 3.000000 -5.196152 0.640000
      vertex 4.014784 -4.458869 0.640000
    endloop
  endfacet
  facet normal 0.587785 -0.809017 0.000000
    outer loop
      vertex 4.014784 -4.458869 1.280000
      vertex 3.000000 -5.196152 1.280000
      vertex 4.014784 -4.458869 0.640000
    endloop
  endfacet
  facet normal 0.743145 -0.669131 0.000000
    outer loop
      vertex 4.014784 -4.458869 1.280000
      vertex 4.014784 -4.458869 0.640000
      vertex 4.854102 -3.526712 0.640000
    endloop
  endfacet
  facet normal 0.743145 -0.669131 0.000000
    outer loop
      vertex 4.854102 -3.526712 1.280000
      vertex 4.014784 -4.458869 1.280000
      vertex 4.854102 -3.526712 0.640000
    endloop
  endfacet
  facet normal 0.866025 -0.500000 0.000000
    outer loop
      vertex 4.854102 -3.526712 1.280000
      vertex 4.854102 -3.526712 0.640000
      vertex 5.481273 -2.440420 0.640000
    endloop
  endfacet
  facet normal 0.866025 -0.500000 0.000000
    outer loop
      vertex 5.481273 -2.440420 1.280000
      vertex 4.854102 -3.526712 1.280000
      vertex 5.481273 -2.440420 0.640000
    endloop
  endfacet
  facet normal 0.951057 -0.309017 0.000000
    outer loop
      vertex 5.481273 -2.440420 1.280000
      vertex 5.481273 -2.440420 0.640000
      vertex 5.868886 -1.247470 0.640000
    endloop
  endfacet
  facet normal 0.951057 -0.309017 0.000000
    outer loop
      vertex 5.868886 -1.247470 1.280000
      vertex 5.481273 -2.440420 1.280000
      vertex 5.868886 -1.247470 0.640000
    endloop
  endfacet
  facet normal 0.994522 -0.104528 0.000000
    outer loop
      vertex 5.868886 -1.247470 1.280000
      vertex 5.868886 -1.247470 0.640000
      vertex 6.000000 0.000000 0.640000
    endloop
  endfacet
  facet normal 0.994522 -0.104528 0.000000
    outer loop
      vertex 6.000000 0.000000 1.280000
      vertex 5.868886 -1.247470 1.280000
      vertex 6.000000 0.000000 0.640000
    endloop
  endfacet
  facet normal 0.994522 0.104528 0.000000
    outer loop
      vertex 6.000000 0.000000 0.640000
      vertex 5.868886 1.247470 0.640000
      vertex 5.868886 1.247470 1.280000
    endloop
  endfacet
  facet normal 0.994522 0.104528 -0.000000
    outer loop
      vertex 6.000000 0.000000 1.280000
      vertex 6.000000 0.000000 0.640000
      vertex 5.868886 1.247470 1.280000
    endloop
  endfacet
  facet normal 0.951057 0.309017 0.000000
    outer loop
      vertex 5.868886 1.247470 0.640000
      vertex 5.481273 2.440420 0.640000
      vertex 5.481273 2.440420 1.280000
    endloop
  endfacet
  facet normal 0.951057 0.309017 -0.000000
    outer loop
      vertex 5.868886 1.247470 1.280000
      vertex 5.868886 1.247470 0.640000
      vertex 5.481273 2.440420 1.280000
    endloop
  endfacet
  facet normal 0.866025 0.500000 0.000000
    outer loop
      vertex 5.481273 2.440420 0.640000
      vertex 4.854102 3.526712 0.640000
      vertex 4.854102 3.526712 1.280000
    endloop
  endfacet
  facet normal 0.866025 0.500000 -0.000000
    outer loop
      vertex 5.481273 2.440420 1.280000
      vertex 5.481273 2.440420 0.640000
      vertex 4.854102 3.526712 1.280000
    endloop
  endfacet
  facet normal 0.743145 0.669131 0.000000
    outer loop
      vertex 4.854102 3.526712 0.640000
      vertex 4.014784 4.458869 0.640000
      vertex 4.014784 4.458869 1.280000
    endloop
  endfacet
  facet normal 0.743145 0.669131 -0.000000
    outer loop
      vertex 4.854102 3.526712 1.280000
      vertex 4.854102 3.526712 0.640000
      vertex 4.014784 4.458869 1.280000
    endloop
  endfacet
  facet normal 0.587785 0.809017 0.000000
    outer loop
      vertex 3.000000 5.196152 0.640000
      vertex 3.000000 5.196152 1.280000
      vertex 4.014784 4.458869 0.640000
    endloop
  endfacet
  facet normal 0.587785 0.809017 0.000000
    outer loop
      vertex 4.014784 4.458869 0.640000
      vertex 3.000000 5.196152 1.280000
      vertex 4.014784 4.458869 1.280000
    endloop
  endfacet
  facet normal 0.406737 0.913545 0.000000
    outer loop
      vertex 1.854102 5.706339 0.640000
      vertex 1.854102 5.706339 1.280000
      vertex 3.000000 5.196152 0.640000
    endloop
  endfacet
  facet normal 0.406737 0.913545 0.000000
    outer loop
      vertex 3.000000 5.196152 0.640000
      vertex 1.854102 5.706339 1.280000
      vertex 3.000000 5.196152 1.280000
    endloop
  endfacet
  facet normal 0.207912 0.978148 0.000000
    outer loop
      vertex 0.627171 5.967131 0.640000
      vertex 0.627171 5.967131 1.280000
      vertex 1.854102 5.706339 0.640000
    endloop
  endfacet
  facet normal 0.207912 0.978148 0.000000
    outer loop
      vertex 1.854102 5.706339 0.640000
      vertex 0.627171 5.967131 1.280000
      vertex 1.854102 5.706339 1.280000
    endloop
  endfacet
  facet normal 0.000000 1.000000 0.000000
    outer loop
      vertex -0.627171 5.967131 0.640000
      vertex -0.627171 5.967131 1.280000
      vertex 0.627171 5.967131 0.640000
    endloop
  endfacet
  facet normal 0.000000 1.000000 0.000000
    outer loop
      vertex 0.627171 5.967131 0.640000
      vertex -0.627171 5.967131 1.280000
      vertex 0.627171 5.967131 1.280000
    endloop
  endfacet
  facet normal -0.207912 0.978148 0.000000
    outer loop
      vertex -1.854102 5.706339 0.640000
      vertex -1.854102 5.706339 1.280000
      vertex -0.627171 5.967131 0.640000
    endloop
  endfacet
  facet normal -0.207912 0.978148 0.000000
    outer loop
      vertex -0.627171 5.967131 0.640000
      vertex -1.854102 5.706339 1.280000
      vertex -0.627171 5.967131 1.280000
    endloop
  endfacet
  facet normal -0.406737 0.913545 0.000000
    outer loop
      vertex -3.000000 5.196152 0.640000
      vertex -3.000000 5.196152 1.280000
      vertex -1.854102 5.706339 0.640000
    endloop
  endfacet
  facet normal -0.406737 0.913545 0.000000
    outer loop
      vertex -1.854102 5.706339 0.640000
      vertex -3.000000 5.196152 1.280000
      vertex -1.854102 5.706339 1.280000
    endloop
  endfacet
  facet normal -0.587785 0.809017 0.000000
    outer loop
      vertex -4.014784 4.458869 0.640000
      vertex -4.014784 4.458869 1.280000
      vertex -3.000000 5.196152 0.640000
    endloop
  endfacet
  facet normal -0.587785 0.809017 0.000000
    outer loop
      vertex -3.000000 5.196152 0.640000
      vertex -4.014784 4.458869 1.280000
      vertex -3.000000 5.196152 1.280000
    endloop
  endfacet
  facet normal -0.743145 0.669131 0.000000
    outer loop
      vertex -4.854102 3.526712 0.640000
      vertex -4.854102 3.526712 1.280000
      vertex -4.014784 4.458869 0.640000
    endloop
  endfacet
  facet normal -0.743145 0.669131 0.000000
    outer loop
      vertex -4.014784 4.458869 0.640000
      vertex -4.854102 3.526712 1.280000
      vertex -4.014784 4.458869 1.280000
    endloop
  endfacet
  facet normal -0.866025 0.500000 0.000000
    outer loop
      vertex -5.481273 2.440420 0.640000
      vertex -5.481273 2.440420 1.280000
      vertex -4.854102 3.526712 0.640000
    endloop
  endfacet
  facet normal -0.866025 0.500000 0.000000
    outer loop
      vertex -4.854102 3.526712 0.640000
      vertex -5.481273 2.440420 1.280000
      vertex -4.854102 3.526712 1.280000
    endloop
  endfacet
  facet normal -0.951057 0.309017 0.000000
    outer loop
      vertex -5.868886 1.247470 0.640000
      vertex -5.868886 1.247470 1.280000
      vertex -5.481273 2.440420 0.640000
    endloop
  endfacet
  facet normal -0.951057 0.309017 0.000000
    outer loop
      vertex -5.481273 2.440420 0.640000
      vertex -5.868886 1.247470 1.280000
      vertex -5.481273 2.440420 1.280000
    endloop
  endfacet
  facet normal -0.994522 0.104528 0.000000
    outer loop
      vertex -6.000000 0.000000 0.640000
      vertex -6.000000 0.000000 1.280000
      vertex -5.868886 1.247470 0.640000
    endloop
  endfacet
  facet normal -0.994522 0.104528 0.000000
    outer loop
      vertex -5.868886 1.247470 0.640000
      vertex -6.000000 0.000000 1.280000
      vertex -5.868886 1.247470 1.280000
    endloop
  endfacet
endsolid OpenSCAD_Model
